<svg width="185" height="149" viewBox="0 0 185 149" fill="none" xmlns="http://www.w3.org/2000/svg">
<path d="M157.211 71.92C157.316 65.4259 154.431 59.682 149.922 56.165C151.472 52.9003 152.378 49.2195 152.441 45.3211C152.659 31.9089 142.867 21.0357 130.57 21.0357C128.74 21.0357 126.96 21.2817 125.251 21.7358C122.962 13.879 115.995 8.19053 107.66 8.19053C104.922 8.19053 102.315 8.80917 99.9535 9.91112C96.1899 3.93546 89.6804 0 82.2186 0C74.4047 0 67.4942 4.31451 63.619 10.7684C60.3356 7.95276 56.1006 6.26143 51.454 6.26143C41.4291 6.26143 33.0665 14.1305 31.9729 24.1898C20.675 23.9131 11.8156 33.4205 12.1051 45.6398C12.166 48.2113 12.6326 50.6978 13.4282 53.032C5.72548 55.4256 0.0661313 63.0363 0.00057247 72.1171C-0.0632835 80.9802 5.22144 88.5498 12.6036 91.2786C11.0481 93.803 10.1286 96.8135 10.1009 100.055C10.0234 109.041 16.7977 116.38 25.2322 116.448C33.6667 116.516 40.5666 109.287 40.6441 100.301C40.6986 93.9887 37.37 88.4931 32.462 85.7556C35.4057 82.244 37.2146 77.6031 37.2516 72.4957C37.2606 71.2488 37.1584 70.0289 36.9647 68.8428C46.7504 67.5004 54.0181 58.6473 53.755 47.5625C53.7401 46.937 53.6954 46.3183 53.6341 45.7038C58.7741 44.9301 63.2917 42.0829 66.3406 38.0144C70.1724 42.0756 75.529 44.5904 81.494 44.5904C85.8626 44.5904 89.9469 43.2379 93.3785 40.9211C96.7335 44.7857 101.588 47.2081 107.026 47.2081C107.337 47.2081 107.645 47.1994 107.952 47.1839C108.454 56.6089 113.911 64.5306 121.567 67.8863C121.289 69.188 121.129 70.5369 121.107 71.9205C121.023 77.1038 122.845 81.8083 125.876 85.286C121.453 88.6586 118.517 94.1583 118.416 100.375C118.25 110.636 125.862 118.954 135.419 118.954C144.976 118.954 152.859 110.636 153.026 100.375C153.102 95.653 151.529 91.3454 148.879 88.0674C153.798 84.5942 157.101 78.6602 157.211 71.92Z" fill="#000044"/>
<path d="M81.4321 31.9917C43.7426 31.9917 28.9727 76.5871 28.9727 111.836C28.9727 136.941 43.6736 148.823 79.6726 148.823C113.975 148.823 131.521 135.511 131.521 110.263C131.521 78.369 115.479 31.9917 81.4321 31.9917Z" fill="#3399FF"/>
<path d="M113.82 23.4307C110.651 23.3987 107.735 24.5806 105.454 26.5737C104.696 18.5323 98.4235 12.2169 90.7476 12.1392C84.1934 12.0724 78.5988 16.5757 76.5583 22.8884C74.1582 17.9872 69.2059 14.6613 63.4095 14.6983C55.6583 14.7482 49.145 20.7919 48.1586 28.5074C46.0765 26.9619 43.5593 26.0461 40.8424 26.0186C33.602 25.945 27.6868 32.2074 27.6302 40.0056C27.574 47.8038 33.3976 54.1855 40.6385 54.2586C47.2122 54.3254 52.6924 49.1696 53.6885 42.3832C56.1721 44.3388 59.301 45.492 62.725 45.47C69.303 45.428 74.987 41.0678 77.1611 35.0336C79.5336 40.424 84.6097 44.1765 90.5155 44.2369C94.4895 44.2771 98.1093 42.6352 100.801 39.9315C101.853 46.5423 107.172 51.6057 113.616 51.6711C120.857 51.7447 126.772 45.4824 126.828 37.6842C126.885 29.8855 121.06 23.5043 113.82 23.4307Z" fill="#000044"/>
<path d="M87.3632 86.1355C88.258 87.3202 89.7692 87.7349 91.1081 87.2251C94.2409 86.0317 97.6614 85.3719 101.247 85.3719C102.677 85.3719 104.081 85.478 105.451 85.6792C107.168 85.9256 108.832 86.3244 110.427 86.8598C111.824 87.3289 113.337 86.7766 114.2 85.5064C115.818 83.1251 116.756 80.2934 116.756 77.2537C116.756 68.7998 109.504 61.9467 100.557 61.9467C91.6104 61.9467 84.3577 68.7998 84.3577 77.2537C84.3577 80.5645 85.4709 83.6308 87.3632 86.1355Z" fill="white"/>
<path d="M45.3178 86.0967C46.2126 87.2814 47.7239 87.6961 49.0623 87.1859C52.1951 85.9925 55.6161 85.3322 59.201 85.3322C60.6313 85.3322 62.0353 85.4383 63.4057 85.6395C65.1221 85.8859 66.7858 86.2847 68.3809 86.8201C69.7785 87.2892 71.291 86.7369 72.1543 85.4666C73.772 83.0853 74.7107 80.2537 74.7107 77.2135C74.7107 68.7596 67.4579 61.9065 58.5113 61.9065C49.5646 61.9065 42.3119 68.7596 42.3119 77.2135C42.3127 80.5257 43.426 83.592 45.3178 86.0967Z" fill="white"/>
<path d="M100.609 61.9539C100.37 61.9539 100.138 61.9781 99.9016 61.9877C97.8199 66.1348 96.6514 70.7708 96.6514 75.6655C96.6514 79.1072 97.2303 82.4194 98.2971 85.5245C99.2661 85.4258 100.249 85.3714 101.246 85.3714C102.676 85.3714 104.08 85.4774 105.45 85.6786C107.181 85.9274 108.859 86.3306 110.466 86.8729C111.861 87.3439 113.374 86.7934 114.239 85.5264C115.864 83.1446 116.808 80.3083 116.808 77.2608C116.809 68.807 109.556 61.9539 100.609 61.9539ZM111.541 83.167C111.206 83.6389 110.699 83.8867 110.186 83.8867C109.826 83.8867 109.463 83.7646 109.154 83.5122C108.407 82.8995 108.263 81.7518 108.833 80.9489C109.156 80.4848 111.938 76.2664 108.707 73.0085C108.022 72.3167 107.988 71.1594 108.631 70.4233C109.274 69.6871 110.352 69.6501 111.038 70.341C115.468 74.8073 113.304 80.6833 111.541 83.167Z" fill="#000044"/>
<path d="M58.5647 61.9147C58.3259 61.9147 58.0935 61.9389 57.8572 61.9485C55.7755 66.0957 54.6069 70.7316 54.6069 75.6263C54.6069 79.068 55.1859 82.3802 56.2527 85.4853C57.2216 85.3866 58.2046 85.3322 59.2012 85.3322C60.6315 85.3322 62.0355 85.4382 63.4059 85.6394C65.1368 85.8882 66.8141 86.2915 68.4211 86.8342C69.817 87.3052 71.3291 86.7546 72.1942 85.4876C73.8199 83.1059 74.7637 80.2696 74.7637 77.2221C74.7641 68.7682 67.5114 61.9147 58.5647 61.9147ZM69.496 83.1283C69.161 83.6001 68.6536 83.848 68.1406 83.848C67.7804 83.848 67.4177 83.7259 67.1091 83.4735C66.3616 82.8608 66.2177 81.7131 66.7877 80.9102C67.1112 80.4461 69.8932 76.2276 66.6621 72.9693C65.9767 72.278 65.9427 71.1207 66.5859 70.3846C67.2296 69.648 68.3066 69.6104 68.9928 70.3027C73.4236 74.7686 71.2593 80.6446 69.496 83.1283Z" fill="#000044"/>
<path d="M71.0453 59.4718C70.7082 59.4718 70.3676 59.3648 70.0705 59.1412C69.7461 58.9011 61.9173 53.2291 52.5552 58.1298C51.7097 58.5728 50.6906 58.1947 50.2785 57.2871C49.8664 56.379 50.2176 55.2839 51.0631 54.8413C62.2656 48.9768 71.6298 55.8482 72.0228 56.144C72.7933 56.7233 72.981 57.8632 72.4417 58.6908C72.1109 59.1997 71.5822 59.4718 71.0453 59.4718Z" fill="#000044"/>
<path d="M89.4768 59.4266C88.8974 59.4266 88.3329 59.1093 88.0141 58.5363C87.5309 57.6694 87.7936 56.5464 88.6007 56.0279C99.3298 49.1318 108.751 55.3137 109.147 55.5807C109.944 56.1175 110.185 57.246 109.685 58.1019C109.186 58.9579 108.135 59.2167 107.338 58.6799C107.016 58.4668 99.2455 53.4477 90.3495 59.1669C90.0758 59.3424 89.7744 59.4266 89.4768 59.4266Z" fill="#000044"/>
<path d="M77.7996 108.218C75.6107 108.218 73.9065 107.423 72.8763 105.854C70.3979 102.079 72.7201 95.391 79.4152 87.0207C80.0278 86.254 81.1027 86.1666 81.8166 86.825C82.5301 87.483 82.6114 88.638 81.9988 89.4043C75.1684 97.9442 74.8005 102.437 75.6596 103.746C76.4225 104.907 78.8971 104.837 81.966 103.568C82.8443 103.204 83.8289 103.675 84.1669 104.618C84.5049 105.56 84.0673 106.619 83.1895 106.982C81.1908 107.808 79.3701 108.218 77.7996 108.218Z" fill="#000044"/>
<path d="M79.6211 138.494C94.6277 138.494 106.51 127.786 108.128 109.667C108.274 108.025 106.567 106.944 105.284 107.852C101.068 110.836 92.4579 115.443 79.4764 115.443C67.7733 115.443 58.8909 110.907 54.312 107.921C52.8007 106.935 50.8982 108.236 51.0881 110.124C52.8986 128.136 65.0245 138.494 79.6211 138.494Z" fill="#000044"/>
<path d="M52.3604 109.678C61.3216 127.304 99.4427 127.702 107.342 109.477C107.876 108.246 106.554 107.033 105.484 107.764C101.217 110.678 92.5356 115.209 79.8032 115.209C67.4326 115.209 58.6111 110.761 54.1565 107.845C53.0318 107.108 51.7308 108.439 52.3604 109.678Z" fill="white"/>
<path d="M79.8486 138.502C86.3083 138.448 92.1801 136.41 96.8871 132.641C88.642 129.673 69.5201 129.43 61.6628 132.087C66.0638 135.828 71.5116 138.004 77.4527 138.424C78.2288 138.468 79.0278 138.494 79.8486 138.502Z" fill="white"/>
<path d="M51.5336 101.22C55.3353 101.22 58.4173 99.1463 58.4173 96.5887C58.4173 94.0311 55.3353 91.9578 51.5336 91.9578C47.7318 91.9578 44.6499 94.0311 44.6499 96.5887C44.6499 99.1463 47.7318 101.22 51.5336 101.22Z" fill="#FFABB9"/>
<path d="M106.685 101.794C110.487 101.794 113.569 99.7206 113.569 97.163C113.569 94.6054 110.487 92.5321 106.685 92.5321C102.883 92.5321 99.8014 94.6054 99.8014 97.163C99.8014 99.7206 102.883 101.794 106.685 101.794Z" fill="#FFABB9"/>
<path d="M184.953 82.773C185.615 75.2085 179.165 69.4779 169.959 65.4711C168.651 50.0192 178.141 39.858 179.171 28.0745C180.683 10.7702 151.353 11.6312 149.084 37.5873C148.362 45.8473 148.987 53.4128 150.174 59.8914C147.58 59.4516 144.986 59.1041 142.451 58.848C121.306 56.7155 118.127 80.2889 125.471 83.4296C125.471 83.4296 121.154 85.4625 120.523 92.6819C119.877 100.063 125.72 102.657 125.72 102.657C125.72 102.657 122.099 105.156 121.567 111.239C120.964 118.134 126.393 120.637 126.393 120.637C126.393 120.637 122.002 122.821 121.527 128.256C120.628 138.545 132.549 143.626 145.286 144.91C162.506 146.647 174.682 139.835 175.349 132.211C175.632 128.966 173.782 126.475 173.782 126.475C173.782 126.475 179.209 123.545 180.159 118.225C181.126 112.805 176.971 109.041 176.971 109.041C176.971 109.041 182.912 106.317 183.527 100.25C184.079 94.7961 180.53 91.2466 180.53 91.2466C180.53 91.2466 184.485 88.1264 184.953 82.773Z" fill="#3399FF"/>
<path d="M170.556 63.8551C159.671 59.0028 150.522 58.253 150.138 58.2232C150.138 58.2232 150.138 58.2232 150.138 58.2232C141.972 57.3042 135.232 58.2251 130.106 60.9603C124.626 63.8852 122.339 68.1302 121.386 71.1755C119.967 75.7136 120.621 80.5018 122.847 83.3696C121.091 85.1825 118.641 88.6626 118.641 93.9684C118.641 98.9774 120.743 102.094 122.432 103.79C120.899 105.339 119.076 108.052 119.076 112.193C119.076 112.419 119.084 112.642 119.097 112.864C119.103 112.997 119.113 113.127 119.124 113.257C119.126 113.28 119.128 113.304 119.131 113.327C119.467 117.164 121.46 119.578 123.06 120.916C121.842 122.433 120.324 124.861 119.849 127.959C118.838 134.545 122.716 137.893 122.882 138.032C123.191 138.293 123.557 138.419 123.921 138.419C124.42 138.419 124.914 138.182 125.251 137.73C125.836 136.949 125.718 135.802 124.997 135.166C124.896 135.077 122.537 132.935 123.21 128.553C123.632 125.798 125.255 123.688 126.179 122.679C132.943 126.219 143.051 126.811 149.041 126.811C151.817 126.811 153.709 126.684 153.971 126.666C154.91 126.599 155.62 125.728 155.557 124.72C155.495 123.712 154.686 122.949 153.747 123.015C153.528 123.03 131.82 124.477 124.598 117.215C123.363 115.972 122.68 114.569 122.521 112.947C122.499 112.703 122.483 112.455 122.483 112.193C122.483 107.488 125.909 105.495 126.044 105.419C126.056 105.412 126.067 105.403 126.079 105.396C126.085 105.392 126.093 105.39 126.1 105.386C126.139 105.363 130.076 103.071 136.249 102.97C136.422 102.967 136.594 102.966 136.768 102.966C147.289 102.966 159.863 108.052 159.992 108.104C160.191 108.185 160.396 108.224 160.597 108.224C161.283 108.224 161.93 107.775 162.189 107.045C162.523 106.102 162.082 105.045 161.203 104.686C160.648 104.459 147.485 99.1324 136.197 99.3126C130.911 99.399 127.075 100.895 125.389 101.697C124.259 100.785 122.048 98.4306 122.048 93.9679C122.048 88.043 126.096 85.1725 126.354 84.996C126.354 84.9955 126.355 84.995 126.356 84.9946C126.358 84.9932 126.362 84.99 126.364 84.9891C126.45 84.9324 126.528 84.8656 126.602 84.7952C126.611 84.7865 126.621 84.7811 126.63 84.7724C126.665 84.7381 130.334 81.3207 138.496 81.3207C144.183 81.3207 148.656 82.6055 152.602 83.7386C155.035 84.4372 157.334 85.0975 159.528 85.3188C160.119 85.3782 160.682 85.4038 161.214 85.4038C164.236 85.4038 166.243 84.5844 166.341 84.5438C167.218 84.1784 167.654 83.119 167.313 82.1771C166.973 81.2347 165.987 80.7679 165.109 81.1332C165.089 81.1423 162.946 81.9896 159.846 81.6769C157.937 81.4844 155.872 80.8913 153.481 80.2045C149.538 79.072 144.63 77.6623 138.496 77.6623C131.654 77.6623 127.464 79.8104 125.549 81.1149C124.164 79.4126 123.472 75.9961 124.615 72.34C127.139 64.2753 136.567 60.359 149.838 61.8656C149.848 61.867 149.857 61.8647 149.867 61.8656C149.876 61.8665 149.885 61.8702 149.894 61.8706C149.983 61.878 158.904 62.6201 169.25 67.2327C169.464 67.3278 169.685 67.3731 169.903 67.3731C170.57 67.3731 171.204 66.9483 171.476 66.2446C171.836 65.3123 171.424 64.2419 170.556 63.8551Z" fill="#000044"/>
</svg>
