<svg width="190" height="121" viewBox="0 0 190 121" fill="none" xmlns="http://www.w3.org/2000/svg">
<circle cx="35.5" cy="35.5" r="35.5" fill="#FFC562"/>
<mask id="mask0_374_25" style="mask-type:luminance" maskUnits="userSpaceOnUse" x="0" y="0" width="71" height="71">
<circle cx="35.3765" cy="35.3765" r="35.3765" fill="white"/>
</mask>
<g mask="url(#mask0_374_25)">
<ellipse cx="38.3532" cy="26.2039" rx="15.9001" ry="13.7194" transform="rotate(-20.0153 38.3532 26.2039)" fill="#3A3530"/>
<path d="M37.9482 59.3423L48.3999 31.1267L34.3688 33.8833C34.3688 33.8833 29.0797 43.6705 25.2356 47.7345" fill="#FF9763"/>
<path d="M48.1038 14.0775C47.8741 13.0727 47.4161 12.1344 46.7653 11.3353C43.4847 7.34317 36.0829 7.64387 30.2333 12.0072C28.2933 13.4315 26.6833 15.2573 25.5129 17.3603C22.7099 17.8308 20.0601 18.9652 17.785 20.6689C11.0854 25.6658 9.25682 34.1009 13.7011 39.5091C18.1449 44.9174 27.1788 45.2504 33.8784 40.2533C37.6453 37.4437 39.8721 33.5471 40.3096 29.7129C41.056 28.711 41.667 27.615 42.1268 26.4533C46.7769 22.9782 49.0299 17.9838 48.1038 14.0775Z" fill="#3A3530"/>
<path d="M36.3903 44.0205C47.1587 52.5353 57.6706 43.7809 46.7438 16.4464C47.6234 20.0418 45.4459 24.6476 40.9696 27.8604C40.0512 30.1663 38.2448 32.4664 35.6758 34.3067C33.4048 35.9337 31.8469 36.0528 29.4517 36.449L30.4735 37.4593" fill="#FF9763"/>
<path d="M33.3569 41.0928C23.4754 36.6791 29.6026 26.0747 37.2823 33.6758L33.3569 41.0928Z" fill="#FF9763"/>
<path d="M22.7385 51.0042L26.8939 44.6017L39.0712 57.7207L38.5201 62.8513" fill="#F0F3FC"/>
<path d="M101.817 55.9323C101.817 55.9323 90.5564 56.9898 89.8057 57.5942C89.055 58.1985 58.2122 89.4222 58.2122 89.4222L33.2357 64.9178L23.4446 82.0694L55.7815 106.007C57.5467 107.314 59.7792 107.821 61.9357 107.404C64.0922 106.987 65.9751 105.685 67.1262 103.815L90.4062 66.2058C90.4062 66.2058 92.3591 65.9404 102.493 68.3199C103.348 67.9124 115.994 61.3689 115.994 61.3689C115.994 61.3689 116.03 58.5839 103.573 64.1538C103.573 64.1538 96.8018 61.8227 95.6757 60.6896C94.5497 59.5565 102.628 59.8745 101.817 55.9323Z" fill="#FF9763"/>
<path d="M37.4075 100.199C48.7719 100.818 52.4964 83.4291 52.4964 83.4291C52.4964 83.4291 28.3992 56.9143 21.4178 58.9539C14.4365 60.9934 18.4901 76.857 18.4901 76.857L37.4075 100.199Z" fill="#BB393C"/>
<path d="M18.6921 119.924C18.6921 119.924 16.1366 105.753 27.3891 97.6743C38.6416 89.5957 39.0712 60.6391 39.0712 60.6391L23.6383 49.2022C23.6383 49.2022 -0.0787773 63.3727 -16.5247 93.6678L18.6921 119.924Z" fill="#BB393C"/>
<path d="M102.894 58.1439C102.894 58.1439 91.0559 59.2488 90.2667 59.8801C89.4774 60.5114 57.0515 93.133 57.0515 93.133L34.908 71.5436L20.4994 85.4509L54.4961 110.46C56.3532 111.826 58.696 112.356 60.9601 111.921C63.2241 111.486 65.2042 110.126 66.4231 108.17L90.8981 68.8773C90.8981 68.8773 92.9512 68.6 103.606 71.086C104.505 70.6602 117.799 63.8238 117.799 63.8238C117.799 63.8238 117.837 60.9142 104.741 66.7334C104.741 66.7334 97.6219 64.298 96.4381 63.1141C95.2542 61.9303 103.748 62.2625 102.894 58.1439Z" fill="#FF9763"/>
<path d="M15.2905 80.0053L35.1789 104.392C47.1267 105.039 51.0423 86.8716 51.0423 86.8716C51.0423 86.8716 42.1921 77.1942 33.438 69.7191" fill="#BB393C"/>
<circle cx="35.9258" cy="65.2609" r="0.887391" fill="#F0F3FC"/>
<path d="M48.5307 29.5435C49.1097 29.5882 49.5428 30.0938 49.4981 30.6728L49.3614 32.4433C49.3167 33.0223 48.8111 33.4555 48.2321 33.4108C47.6531 33.3661 47.22 32.8604 47.2647 32.2815L47.4014 30.5109C47.4461 29.9319 47.9517 29.4988 48.5307 29.5435Z" fill="#190000"/>
<path d="M49.7343 26.1085C46.5785 25.7235 45.7723 26.9818 47.7294 27.3511C49.6864 27.7204 51.7962 26.36 49.7343 26.1085Z" fill="#190000"/>
<path d="M50.581 31.4772C55.05 34.5123 53.1279 38.5205 50.5259 37.3485L50.581 31.4772Z" fill="#FF9763"/>
<circle cx="41.7524" cy="33.6065" r="3.53132" fill="#E84B23"/>
<path d="M44.4681 36.4742C46.0941 38.4294 48.2568 37.9231 48.2568 37.9231" stroke="#993443" stroke-width="3.65863" stroke-linecap="round" stroke-linejoin="round"/>
</g>
<circle opacity="0.27" cx="117.5" cy="37.5" r="33.5" fill="#003780"/>
<mask id="mask1_374_25" style="mask-type:luminance" maskUnits="userSpaceOnUse" x="84" y="4" width="68" height="67">
<circle cx="117.727" cy="37.3486" r="33.3486" fill="white"/>
</mask>
<g mask="url(#mask1_374_25)">
<path d="M95.6673 73.9513L99.2955 58.6675C99.2955 58.6675 120.27 48.94 144.574 53.3182C144.574 53.3182 156.896 133.428 156.896 137.361C156.896 137.361 126.233 148.746 92.7044 135.564C90.1253 131.303 102.607 120.185 95.6673 73.9513Z" fill="#FFC562"/>
<mask id="mask2_374_25" style="mask-type:luminance" maskUnits="userSpaceOnUse" x="92" y="52" width="65" height="90">
<path fill-rule="evenodd" clip-rule="evenodd" d="M95.6673 73.9513L99.2955 58.6675C99.2955 58.6675 120.27 48.94 144.574 53.3182C144.574 53.3182 156.896 133.428 156.896 137.361C156.896 137.361 126.233 148.746 92.7044 135.564C90.1253 131.303 102.607 120.185 95.6673 73.9513Z" fill="white"/>
</mask>
<g mask="url(#mask2_374_25)">
<path d="M125.701 81.3495C118.74 62.5536 138.786 61.4647 128.433 80.7021L125.701 81.3495Z" fill="#F08059"/>
<path d="M127.556 81.3616C149.421 70.0608 145.832 89.4948 127.603 83.892L127.556 81.3616Z" fill="#F08059"/>
<path d="M126.722 80.9776C137.261 59.696 148.898 72.668 128.688 82.309L126.722 80.9776Z" fill="#F08059"/>
<path d="M125.09 82.2594C104.707 76.9596 121.419 62.4477 126.989 80.0125L125.09 82.2594Z" fill="#F08059"/>
<ellipse cx="120.733" cy="56.2904" rx="15.0521" ry="14.8957" fill="#BB393C"/>
<ellipse cx="120.733" cy="53.631" rx="13.6925" ry="14.8957" fill="#FF9763"/>
<path d="M147.196 69.6494C140.382 67.5201 153.724 95.8809 137.314 99.0542C120.903 102.228 146.557 125.254 146.557 125.254L137.25 142.983L156.896 101.802L155.713 88.6001" fill="#D89D35"/>
</g>
<path d="M123.548 53.1884C136.316 54.4979 142.537 50.2418 142.537 50.2418C131.733 43.0392 143.191 37.4735 136.316 30.9256C129.441 24.3778 135.229 14.356 123.548 12.7553L122.074 17.3388C126.167 29.7798 119.455 43.2847 119.455 43.2847L123.548 53.1884Z" fill="#4B4D5C"/>
<path d="M109.369 56.9267L112.089 36.9824L126.044 39.356C126.251 43.6708 126.813 50.3224 127.681 55.5417" fill="#FF9763"/>
<mask id="mask3_374_25" style="mask-type:luminance" maskUnits="userSpaceOnUse" x="109" y="36" width="19" height="21">
<path fill-rule="evenodd" clip-rule="evenodd" d="M109.369 56.9267L112.089 36.9824L126.044 39.356C126.251 43.6708 126.813 50.3224 127.681 55.5417" fill="white"/>
</mask>
<g mask="url(#mask3_374_25)">
<path d="M109.544 44.0325C118.146 54.6616 125.618 50.2568 127.681 55.5416C129.744 60.8265 127.681 39.356 127.681 39.356L121.406 38.5128L110.719 42.2708" fill="#E84B23"/>
</g>
<path d="M128.704 30.1072C134.679 26.424 135.825 34.6498 127.681 39.356L128.704 30.1072Z" fill="#FF9763"/>
<path d="M122.075 17.3387C122.075 17.3387 110.616 17.5025 115.199 28.3065C118.488 36.0589 113.687 41.5357 114.219 47.3979C115.105 47.9167 116.151 48.141 117.409 47.95C128.418 46.2797 129.564 36.9991 129.216 26.2562C122.172 24.6981 122.075 17.3387 122.075 17.3387Z" fill="#FF9763"/>
<mask id="mask4_374_25" style="mask-type:luminance" maskUnits="userSpaceOnUse" x="114" y="17" width="16" height="32">
<path fill-rule="evenodd" clip-rule="evenodd" d="M122.075 17.3387C122.075 17.3387 110.616 17.5025 115.199 28.3065C118.488 36.0589 113.687 41.5357 114.219 47.3979C115.105 47.9167 116.151 48.141 117.409 47.95C128.418 46.2797 129.564 36.9991 129.216 26.2562C122.172 24.6981 122.075 17.3387 122.075 17.3387Z" fill="white"/>
</mask>
<g mask="url(#mask4_374_25)">
<ellipse opacity="0.27" cx="127.667" cy="36.1941" rx="3.94471" ry="3.00382" transform="rotate(-2.5189 127.667 36.1941)" fill="#E84B23"/>
<path d="M112.989 27.3539C113.763 27.3754 114.374 28.0206 114.352 28.7948L114.286 31.1625C114.264 31.9368 113.619 32.547 112.845 32.5254C112.071 32.5038 111.461 31.8587 111.482 31.0844L111.548 28.7167C111.57 27.9425 112.215 27.3323 112.989 27.3539L112.989 27.3539Z" fill="#190000"/>
<path d="M123.779 27.2155C124.15 27.2258 124.503 27.3835 124.759 27.6537C125.014 27.9239 125.152 28.2846 125.142 28.6564L125.076 31.0241C125.054 31.7984 124.409 32.4086 123.635 32.387C122.86 32.3655 122.25 31.7203 122.272 30.9461L122.338 28.5784C122.359 27.8041 123.004 27.1939 123.779 27.2155L123.779 27.2155Z" fill="#190000"/>
<path d="M112.731 24.0399C109.847 24.7947 110.591 26.3761 112.425 26.0219C114.259 25.6676 114.616 23.5468 112.731 24.0399Z" fill="#190000"/>
<path d="M123.789 23.7991C126.627 24.7132 126.015 26.1371 124.204 25.6813C122.393 25.2256 121.935 23.2018 123.789 23.7991Z" fill="#190000"/>
<path d="M119.881 33.3574C119.873 34.3056 119.064 33.9228 118.063 33.9142C117.061 33.9056 116.246 34.2746 116.254 33.3264C116.262 32.3782 117.081 31.6164 118.082 31.625C119.084 31.6336 119.889 32.4092 119.881 33.3574Z" fill="#E84B23"/>
<path d="M114.173 38.6374C115.882 45.3761 122.131 42.1137 121.975 37.8682C121.963 37.6486 121.815 37.4597 121.605 37.3954C120.718 37.1131 118.156 36.563 114.495 38.014C114.248 38.1126 114.11 38.3784 114.173 38.6374Z" fill="#C1525F"/>
<mask id="mask5_374_25" style="mask-type:luminance" maskUnits="userSpaceOnUse" x="114" y="37" width="8" height="6">
<path fill-rule="evenodd" clip-rule="evenodd" d="M114.173 38.6374C115.882 45.3761 122.131 42.1137 121.975 37.8682C121.963 37.6486 121.815 37.4597 121.605 37.3954C120.718 37.1131 118.156 36.563 114.495 38.014C114.248 38.1126 114.11 38.3784 114.173 38.6374Z" fill="white"/>
</mask>
<g mask="url(#mask5_374_25)">
<ellipse cx="119.293" cy="42.086" rx="3.48524" ry="3.11071" transform="rotate(-22.8319 119.293 42.086)" fill="#993443"/>
<path d="M115.299 37.4613C115.34 37.9117 115.436 38.5199 115.563 38.6211C116.347 39.2444 119.831 38.6371 120.277 38.2038C120.402 38.0832 120.294 36.6293 120.294 36.6293L115.812 37.1706" fill="#F0F3FC"/>
</g>
</g>
<path d="M123.005 14.4442L123.548 12.7554C117.819 7.68079 104.886 11.6096 103.413 23.3955C101.94 35.1819 91.2997 30.5981 95.0649 38.6193C98.8291 46.6405 90.3052 50.5908 90.3052 50.5908C90.3052 50.5908 110.616 56.6261 118.146 54.6617C115.464 52.0725 114.429 49.7053 114.219 47.3978C113.687 41.5357 118.488 36.0589 115.199 28.3065C110.615 17.5025 122.075 17.3387 122.075 17.3387C122.075 17.3387 122.172 24.6981 129.216 26.2562C129.479 26.3144 129.73 26.3828 130.014 26.4239" fill="#4B4D5C"/>
<path d="M104.783 32.7664C103.936 33.3378 103.365 34.1502 102.991 35.0908C102.614 36.0403 102.523 37.0946 102.553 38.108C102.57 38.7208 102.632 39.3312 102.694 39.9407C102.7 40.1419 102.78 40.3339 102.918 40.4806C103.062 40.6227 103.255 40.7029 103.458 40.7042C103.837 40.6872 104.264 40.3663 104.221 39.9407C104.118 38.9318 104.015 37.9128 104.115 36.8993C104.121 36.8405 104.128 36.782 104.135 36.7234C104.145 36.631 104.127 36.7802 104.127 36.7801C104.128 36.7504 104.133 36.721 104.14 36.6924C104.157 36.586 104.177 36.4802 104.199 36.3749C104.241 36.1753 104.295 35.9781 104.359 35.7844C104.388 35.695 104.42 35.6063 104.455 35.5185C104.466 35.4895 104.48 35.4606 104.49 35.4312C104.492 35.427 104.423 35.5813 104.459 35.5055C104.483 35.456 104.504 35.4056 104.528 35.3563C104.613 35.1808 104.709 35.0111 104.815 34.8481C104.849 34.7963 104.884 34.7453 104.92 34.695C105.02 34.557 104.848 34.7801 104.927 34.6838C104.996 34.6006 105.066 34.5188 105.141 34.4409C105.221 34.3576 105.305 34.2784 105.393 34.2033C105.411 34.1882 105.429 34.1737 105.446 34.1587C105.524 34.0932 105.43 34.1758 105.401 34.1923C105.454 34.1616 105.503 34.119 105.554 34.0848C105.884 33.8619 106.061 33.4022 105.828 33.0402C105.615 32.711 105.137 32.5275 104.783 32.7663L104.783 32.7664Z" fill="#373947"/>
<path d="M145.755 68.0507C146.851 81.6126 148.348 99.8439 148.586 101.271C148.968 103.564 135.785 127.023 135.785 127.023C137.505 134.131 145.933 140.173 145.933 140.173C145.933 140.173 166.353 108.913 166.926 100.889C167.499 92.8649 158.613 48.2804 143.711 53.4386" fill="#FFC562"/>
<path d="M99.6827 58.6675C85.3915 60.2398 85.435 78.2868 86.9634 111.911C86.9634 111.911 85.0495 121.12 99.0275 126.514C104.132 126.514 102.543 111.014 102.543 111.014C102.543 111.014 101.63 104.137 101.036 103.563C100.569 103.113 101.911 87.6792 102.507 81.0893" fill="#FFC562"/>
<mask id="mask6_374_25" style="mask-type:luminance" maskUnits="userSpaceOnUse" x="86" y="58" width="17" height="69">
<path fill-rule="evenodd" clip-rule="evenodd" d="M99.6827 58.6675C85.3915 60.2398 85.435 78.2868 86.9634 111.911C86.9634 111.911 85.0495 121.12 99.0275 126.514C104.132 126.514 102.543 111.014 102.543 111.014C102.543 111.014 101.63 104.137 101.036 103.563C100.569 103.113 101.911 87.6792 102.507 81.0893" fill="white"/>
</mask>
<g mask="url(#mask6_374_25)">
<path d="M77.4597 61.5828C93.7977 59.4917 74.2757 80.4321 91.3073 85.2809L94.3816 83.3114C76.2138 82.0256 97.818 56.9162 77.9554 60.3137L77.4597 61.5828Z" fill="#97CC64"/>
<path d="M78.4854 59.4116C93.3284 72.881 76.0418 83.0897 76.3593 61.2457L78.4854 59.4116Z" fill="#F08059"/>
<path d="M78.0464 57.5831C92.2384 37.4743 98.0142 56.374 79.2551 59.8066L78.0464 57.5831Z" fill="#F08059"/>
<path d="M78.6079 58.3225C99.1387 53.6278 90.9994 74.2105 77.9592 61.1917L78.6079 58.3225Z" fill="#F08059"/>
<path d="M88.56 75.4689C98.2172 75.4301 97.4659 64.1987 97.4659 64.1987C97.4659 64.1987 85.45 67.7803 88.56 75.4689Z" fill="#97CC64"/>
</g>
</g>
<circle cx="75.5" cy="82.5" r="36.5" fill="#97CE64"/>
<mask id="mask7_374_25" style="mask-type:luminance" maskUnits="userSpaceOnUse" x="37" y="44" width="77" height="77">
<circle cx="75.3765" cy="82.3765" r="36.3765" fill="white" stroke="white" stroke-width="4"/>
</mask>
<g mask="url(#mask7_374_25)">
<path d="M73.8435 134.403L94.8239 125.293C94.8239 125.293 87.5436 103.353 86.7166 102.437C85.523 101.114 64.7336 109.006 64.7336 109.006L73.8435 134.403Z" fill="#9A7ED9"/>
<mask id="mask8_374_25" style="mask-type:luminance" maskUnits="userSpaceOnUse" x="64" y="102" width="31" height="33">
<path fill-rule="evenodd" clip-rule="evenodd" d="M73.8435 134.403L94.8239 125.293C94.8239 125.293 87.5436 103.353 86.7166 102.437C85.523 101.114 64.7336 109.006 64.7336 109.006L73.8435 134.403Z" fill="white"/>
</mask>
<g mask="url(#mask8_374_25)">
<path d="M74.1613 149.558C82.9665 134.999 77.0773 113.432 77.0773 113.432L62.116 130.538L74.1613 149.558Z" fill="#6F4EB9"/>
<path d="M69.8383 132.881L95.6065 120.403L97.4198 127.721L67.4103 139.372" fill="#F0F3FC"/>
</g>
<path d="M86.6112 102.38C81.3794 100.425 59.7644 100.788 49.1969 100.736C46.5814 100.723 44.138 102.039 42.709 104.229L7.58826 158.075L64.7336 160.352C64.7336 160.352 75.1303 137.444 81.6824 120.404" fill="#9A7ED9"/>
<path d="M-47.3456 154.279C-45.1371 153.175 42.5792 103.771 42.5792 103.771L32.3026 131.885L-11.4582 154.279H-47.3456Z" fill="#FF9763"/>
<path d="M45.9548 101.435L14.2153 116.988L23.601 139.372L42.5793 129.221" fill="#9A7ED9"/>
<path d="M147.085 153.514H92.702L116.212 119.136C117.131 117.792 118.654 116.988 120.283 116.988H168.791C169.432 116.988 170.02 117.343 170.318 117.909C170.617 118.476 170.578 119.161 170.216 119.69L147.085 153.514Z" fill="#589BF7"/>
<mask id="mask9_374_25" style="mask-type:luminance" maskUnits="userSpaceOnUse" x="92" y="116" width="79" height="38">
<path fill-rule="evenodd" clip-rule="evenodd" d="M147.085 153.514H92.702L116.212 119.136C117.131 117.792 118.654 116.988 120.283 116.988H168.791C169.432 116.988 170.02 117.343 170.318 117.909C170.617 118.476 170.578 119.161 170.216 119.69L147.085 153.514Z" fill="white"/>
</mask>
<g mask="url(#mask9_374_25)">
<path d="M157.54 114.682C171.488 116.356 155.587 150.389 122.111 152.9C88.6356 155.411 140.266 166.065 140.266 166.065L165.909 154.279L179.02 139.372L179.299 130.389L180.415 108.824L163.677 111.335" fill="#2976DF"/>
</g>
<path d="M82.2633 88.0942L74.1613 104.037C74.1613 104.037 71.083 119.082 65.4927 118.391C59.9025 117.701 60.1096 100.724 60.1096 100.724L68.3914 81.8829L82.2633 88.0942Z" fill="#FF9763"/>
<mask id="mask10_374_25" style="mask-type:luminance" maskUnits="userSpaceOnUse" x="60" y="81" width="23" height="38">
<path fill-rule="evenodd" clip-rule="evenodd" d="M82.2633 88.0942L74.1613 104.037C74.1613 104.037 71.083 119.082 65.4927 118.391C59.9025 117.701 60.1096 100.724 60.1096 100.724L68.3914 81.8829L82.2633 88.0942Z" fill="white"/>
</mask>
<g mask="url(#mask10_374_25)">
<path d="M71.5278 86.959C67.692 103.771 75.7064 103.278 74.7187 109.522C74.1412 113.174 81.8178 85.8179 81.8178 85.8179L68.3914 81.883" fill="#E84B23"/>
</g>
<path d="M67.4103 84.3088V69.3314C67.4103 68.4772 68.1028 67.7846 68.9571 67.7846H87.1354C87.9897 67.7846 88.6822 68.4771 88.6822 69.3314V85.9238C88.6822 91.7979 83.9204 96.5597 78.0463 96.5597C75.2247 96.5634 72.5181 95.4423 70.5256 93.4445" fill="#FF9763"/>
<mask id="mask11_374_25" style="mask-type:luminance" maskUnits="userSpaceOnUse" x="67" y="67" width="22" height="30">
<path fill-rule="evenodd" clip-rule="evenodd" d="M67.4103 84.3088V69.3314C67.4103 68.4772 68.1028 67.7846 68.9571 67.7846H87.1354C87.9897 67.7846 88.6822 68.4771 88.6822 69.3314V85.9238C88.6822 91.7979 83.9204 96.5597 78.0463 96.5597C75.2247 96.5634 72.5181 95.4423 70.5256 93.4445" fill="white"/>
</mask>
<g mask="url(#mask11_374_25)">
<path d="M86.0658 84.0771C85.4859 84.0664 85.0245 83.5876 85.0352 83.0077L85.0679 81.2344C85.0786 80.6545 85.5573 80.193 86.1372 80.2037C86.7171 80.2144 87.1786 80.6932 87.1679 81.2731L87.1352 83.0464C87.1301 83.3249 87.0145 83.5899 86.814 83.7832C86.6134 83.9765 86.3443 84.0822 86.0658 84.0771Z" fill="#190000"/>
<path d="M78.2743 83.3428C77.9959 83.3377 77.7308 83.2221 77.5376 83.0216C77.3443 82.821 77.2386 82.5519 77.2437 82.2735L77.2764 80.5001C77.2816 80.2216 77.3971 79.9566 77.5976 79.7633C77.7982 79.57 78.0673 79.4643 78.3458 79.4695C78.9257 79.4802 79.3871 79.9589 79.3764 80.5388L79.3437 82.3122C79.333 82.8921 78.8542 83.3535 78.2743 83.3428Z" fill="#190000"/>
<path d="M86.4448 77.7338C88.5761 78.3983 87.9644 79.5554 86.605 79.2269C85.2455 78.8984 85.0523 77.2997 86.4448 77.7338Z" fill="#190000"/>
<path d="M78.4563 76.9137C76.302 77.4992 76.7099 78.5855 78.0805 78.3073C79.4511 78.0291 79.8639 76.5312 78.4563 76.9137Z" fill="#190000"/>
<path d="M81.4542 83.8417C81.361 84.5456 82.0007 84.3463 82.7442 84.4448C83.4876 84.5432 84.0534 84.9021 84.1466 84.1982C84.2398 83.4943 83.7127 82.8438 82.9692 82.7454C82.2257 82.6469 81.5475 83.1377 81.4542 83.8417Z" fill="#E84B23"/>
<path d="M85.2202 88.1328C83.7082 93.1143 79.1474 90.4575 79.411 87.2872C79.4273 87.1233 79.5444 86.9872 79.7039 86.9464C80.3775 86.7659 82.3129 86.4432 85.0007 87.6554C85.1825 87.7377 85.2761 87.9412 85.2202 88.1328Z" fill="#C1525F"/>
<mask id="mask12_374_25" style="mask-type:luminance" maskUnits="userSpaceOnUse" x="79" y="86" width="7" height="5">
<path fill-rule="evenodd" clip-rule="evenodd" d="M85.2202 88.1328C83.7082 93.1143 79.1474 90.4575 79.411 87.2872C79.4273 87.1233 79.5444 86.9872 79.7039 86.9464C80.3775 86.7659 82.3129 86.4432 85.0007 87.6554C85.1825 87.7377 85.2761 87.9412 85.2202 88.1328Z" fill="white"/>
</mask>
<g mask="url(#mask12_374_25)">
<ellipse cx="81.2707" cy="90.535" rx="2.32934" ry="2.6098" transform="rotate(-64.5167 81.2707 90.535)" fill="#993443"/>
<path d="M84.4184 87.2142C84.3728 87.5497 84.2794 88.0013 84.1808 88.0726C83.5731 88.5117 80.9877 87.9367 80.6691 87.5971C80.5804 87.5026 80.711 86.4188 80.711 86.4188L84.0448 86.979" fill="#F0F3FC"/>
</g>
</g>
<path d="M89.7925 54.894C88.466 54.8954 87.1514 55.145 85.9167 55.6298C82.8753 53.1885 78.7166 52.6722 75.1706 54.2957C71.6245 55.9193 69.298 59.4047 69.1588 63.3022C69.1516 63.3022 69.1458 63.3012 69.1392 63.3012C64.4703 63.3001 60.6024 66.9236 60.2991 71.5826C59.9958 76.2416 63.3613 80.336 67.9909 80.9403C72.6205 81.5446 76.9242 78.4513 77.8269 73.8705C79.4388 74.1453 81.0934 74.021 82.6461 73.5084C86.1865 76.6995 91.4127 77.1586 95.4552 74.6337C99.4977 72.1088 101.378 67.211 100.064 62.6295C98.7495 58.0481 94.5587 54.8919 89.7925 54.8939V54.894Z" fill="#3A3530"/>
<path d="M68.5975 85.1329C67.5583 84.6335 66.6752 83.8599 66.0434 82.8955C64.3419 80.3408 64.6776 77.1276 66.7931 75.7185C68.9087 74.3095 72.0031 75.2382 73.7046 77.7928C74.2233 78.564 74.5692 79.4381 74.7188 80.3554" fill="#FF9763"/>
<path d="M69.2561 78.1676C68.7323 78.2982 68.2917 78.6509 68.0495 79.1333C67.7784 79.6945 67.8 80.3529 68.1073 80.8951C68.2078 81.0672 68.3926 81.1725 68.5919 81.1714C68.7911 81.1704 68.9747 81.0631 69.0734 80.8899C69.1722 80.7168 69.171 80.5042 69.0705 80.3321C69.0542 80.2942 69.035 80.2576 69.0131 80.2226C69.0482 80.3089 69.0551 80.3248 69.0337 80.2704C69.0264 80.2511 69.0197 80.2316 69.0134 80.212C68.9887 80.1334 68.9709 80.0527 68.9605 79.9709L68.9804 80.1191C68.9677 80.0064 68.9683 79.8926 68.9822 79.78L68.9622 79.9283C68.9715 79.862 68.9856 79.7965 69.0044 79.7322C69.0133 79.7026 69.0244 79.6738 69.0344 79.6445C69.0545 79.5852 68.9719 79.7778 69.0249 79.6711C69.053 79.6173 69.084 79.5651 69.1175 79.5145C69.1691 79.4331 69.0295 79.6152 69.0981 79.5382C69.1168 79.5173 69.1345 79.4956 69.1538 79.4752C69.1926 79.4343 69.2363 79.3994 69.2767 79.3605C69.165 79.4679 69.2136 79.4078 69.2534 79.3802C69.2765 79.3643 69.3 79.3491 69.3241 79.3347C69.3725 79.3057 69.4241 79.2845 69.4735 79.2578C69.3247 79.3384 69.4102 79.285 69.4582 79.2696C69.4893 79.2596 69.5209 79.2512 69.5527 79.2433C69.8478 79.159 70.021 78.8539 69.9422 78.5572C69.8552 78.2642 69.5523 78.0922 69.2561 78.1677L69.2561 78.1676Z" fill="#190000"/>
<path d="M75.5342 70.6601C75.6604 70.8062 75.7865 70.9526 75.9098 71.1012C75.9774 71.1826 76.0437 71.265 76.1097 71.3477C76.171 71.4243 76.1008 71.3338 76.1358 71.381C76.162 71.4163 76.1888 71.4511 76.2148 71.4865C76.3287 71.6414 76.4373 71.8003 76.5369 71.9648C76.5908 72.0537 76.6419 72.1442 76.6903 72.2364C76.7102 72.2747 76.7296 72.3132 76.7484 72.3521C76.7563 72.3683 76.8181 72.5012 76.7953 72.4503C76.7684 72.39 76.8214 72.5154 76.8259 72.5273C76.8443 72.5757 76.8617 72.6244 76.878 72.6736C76.9081 72.7641 76.9341 72.8558 76.9562 72.9487C76.9674 72.996 76.9776 73.0435 76.9867 73.0912C76.9864 73.0897 77.015 73.2687 77.0031 73.1787C77.0175 73.2869 77.0243 73.3965 77.0288 73.5055C77.0366 73.9559 77.0122 74.4063 76.9556 74.8532C76.9257 75.1444 77.2335 75.4235 77.5133 75.411C77.8179 75.4029 78.0629 75.1579 78.0711 74.8532C78.1331 74.3769 78.1561 73.8962 78.1399 73.4161C78.1125 72.9357 78.0027 72.4635 77.8151 72.0204C77.4728 71.2093 76.8931 70.5312 76.3229 69.8713C76.1045 69.6551 75.7526 69.6551 75.5341 69.8713C75.3237 70.0922 75.3237 70.4393 75.5341 70.6601H75.5342Z" fill="#190000"/>
<path d="M85.3448 55.2559C84.4433 55.8835 83.7132 56.7267 83.221 57.7087C83.0923 57.9701 83.1419 58.3243 83.4211 58.4718C83.6725 58.6047 84.0466 58.5512 84.1842 58.2717C84.2928 58.0505 84.4148 57.836 84.5496 57.6297C84.6137 57.5318 84.6807 57.4358 84.7506 57.3418C84.7672 57.3158 84.7858 57.2912 84.8062 57.268C84.7661 57.3072 84.749 57.3413 84.7988 57.2792C84.8374 57.2311 84.8767 57.1836 84.9167 57.1368C85.0727 56.954 85.2397 56.7808 85.4165 56.6181C85.5072 56.5347 85.6004 56.4542 85.6962 56.3766C85.7153 56.3611 85.7347 56.3458 85.7539 56.3305C85.8513 56.2526 85.6841 56.3816 85.7434 56.3387C85.7983 56.2989 85.8524 56.2582 85.9078 56.2191C86.1456 56.0512 86.2808 55.7241 86.1079 55.456C85.9557 55.2199 85.5997 55.0759 85.3448 55.2559Z" fill="#190000"/>
<path d="M88.6214 66.6158C89.7164 66.9092 90.8463 67.0515 91.9799 67.0387C92.1791 67.0387 92.3633 66.9323 92.4629 66.7598C92.5625 66.5872 92.5625 66.3746 92.4629 66.202C92.3633 66.0295 92.1791 65.9232 91.9799 65.9232C91.4488 65.9302 90.9178 65.9015 90.3905 65.8373C90.3607 65.8337 90.3309 65.8299 90.3011 65.826C90.3501 65.8324 90.34 65.8308 90.2707 65.8212C90.2113 65.812 90.1519 65.8033 90.0925 65.7937C89.9639 65.7727 89.8357 65.7497 89.7079 65.7246C89.4424 65.6723 89.1792 65.6102 88.9178 65.5402C88.7257 65.4872 88.5199 65.5407 88.3779 65.6807C88.236 65.8206 88.1795 66.0256 88.2297 66.2185C88.2799 66.4114 88.4291 66.5628 88.6213 66.6158H88.6214Z" fill="#190000"/>
<path d="M82.2068 109.654L81.367 110.207C81.2435 110.283 81.1523 110.402 81.1107 110.541C81.0875 110.612 81.0841 110.689 81.1007 110.763C81.1039 110.837 81.1268 110.908 81.1669 110.97C81.2415 111.098 81.3638 111.191 81.507 111.228C81.6501 111.266 81.8023 111.245 81.93 111.17L82.7697 110.617C82.8932 110.541 82.9844 110.422 83.0261 110.284C83.0492 110.212 83.0527 110.135 83.036 110.061C83.0328 109.987 83.01 109.916 82.9699 109.854C82.8952 109.726 82.7729 109.633 82.6298 109.596C82.4866 109.558 82.3345 109.579 82.2068 109.654Z" fill="#6F4EB9"/>
<path d="M46.5336 106.81C46.7067 107.057 46.8653 107.314 47.0086 107.58C47.0794 107.711 47.1464 107.845 47.2097 107.98C47.2378 108.04 47.2643 108.101 47.2917 108.161C47.3575 108.306 47.2673 108.099 47.3036 108.188C47.3222 108.234 47.3412 108.28 47.3594 108.326C47.5765 108.885 47.7432 109.462 47.8574 110.05C47.8853 110.19 47.9108 110.331 47.9338 110.472C47.9461 110.547 47.9577 110.622 47.9686 110.697C47.9747 110.739 47.9807 110.781 47.9864 110.823C47.9727 110.722 47.9883 110.841 47.9926 110.876C48.0299 111.181 48.0577 111.487 48.0779 111.793C48.1188 112.411 48.1288 113.031 48.1217 113.651C48.1137 114.353 48.0832 115.055 48.0488 115.757C48.0509 116.064 48.2994 116.313 48.6066 116.315C48.9119 116.309 49.1578 116.063 49.1643 115.757C49.2876 113.244 49.3881 110.59 48.4973 108.192C48.2477 107.504 47.9115 106.85 47.4968 106.247C47.3302 106.008 47.001 105.874 46.7337 106.047C46.4966 106.199 46.355 106.554 46.5336 106.81L46.5336 106.81Z" fill="#6F4EB9"/>
</g>
<circle cx="157.5" cy="82.5" r="32.5" fill="#E84B23"/>
<mask id="mask13_374_25" style="mask-type:luminance" maskUnits="userSpaceOnUse" x="125" y="50" width="65" height="65">
<circle cx="157.597" cy="82.3176" r="32.3176" fill="white"/>
</mask>
<g mask="url(#mask13_374_25)">
<circle cx="154.877" cy="79.0673" r="10.3406" fill="#3A3530"/>
<circle cx="152.551" cy="64.965" r="10.775" fill="#3A3530"/>
<path d="M148.909 81.0774L155.025 93.5198L164 90.0886L156.352 78.0368L148.909 81.0774Z" fill="#FF9763"/>
<mask id="mask14_374_25" style="mask-type:luminance" maskUnits="userSpaceOnUse" x="148" y="78" width="16" height="16">
<path fill-rule="evenodd" clip-rule="evenodd" d="M148.909 81.0774L155.025 93.5198L164 90.0886L156.352 78.0368L148.909 81.0774Z" fill="white"/>
</mask>
<g mask="url(#mask14_374_25)">
<path d="M158.425 80.6391C151.37 84.1388 154.536 87.3589 153.307 91.2742C152.077 95.1894 146.447 82.6348 146.447 82.6348L148.227 79.6902L158.425 80.6391Z" fill="#E84B23"/>
</g>
<path d="M157.882 80.6769C141.311 95.6155 140.47 68.7758 149.948 62.344C164.857 52.2272 157.882 80.6769 157.882 80.6769Z" fill="#FF9763"/>
<path d="M146.999 74.6178C146.488 74.6573 146.041 74.2748 146.002 73.7634L145.881 72.1998C145.841 71.6885 146.224 71.242 146.735 71.2025C147.247 71.163 147.693 71.5455 147.733 72.0569L147.853 73.6205C147.893 74.1318 147.51 74.5783 146.999 74.6178Z" fill="#190000"/>
<path d="M145.672 68.169C148.459 67.829 149.171 68.9402 147.443 69.2664C145.715 69.5925 143.851 68.3911 145.672 68.169Z" fill="#190000"/>
<path d="M144.377 73.1924C141.138 75.6393 142.675 79.1304 144.973 78.0953L144.377 73.1924Z" fill="#FF9763"/>
<circle cx="153.473" cy="74.9534" r="3.11859" fill="#E84B23"/>
<path d="M148.909 77.0952C148.188 78.8796 146.587 78.7089 146.587 78.7089" stroke="#993443" stroke-width="3.07632" stroke-linecap="round" stroke-linejoin="round"/>
<path d="M160.112 71.74C160.122 71.7091 160.133 71.6787 160.145 71.6489L160.091 71.7775C160.118 71.7192 160.15 71.6639 160.188 71.6126L160.104 71.7216C160.151 71.6609 160.206 71.6059 160.266 71.558L160.157 71.6422C160.229 71.587 160.307 71.5412 160.391 71.506L160.262 71.5603C160.34 71.5288 160.422 71.5067 160.505 71.4943L160.362 71.5135C160.444 71.5027 160.528 71.5026 160.611 71.5133L160.468 71.4941C160.537 71.5046 160.606 71.5237 160.671 71.5508L160.542 71.4965C160.601 71.5226 160.656 71.5553 160.707 71.5941L160.598 71.5099C160.652 71.5532 160.701 71.6026 160.744 71.6572L160.66 71.5482C160.71 71.6141 160.751 71.6859 160.783 71.762L160.729 71.6334C160.763 71.7165 160.786 71.8035 160.797 71.8923L160.778 71.7491C160.788 71.8315 160.788 71.9147 160.778 71.997L160.797 71.8539C160.786 71.929 160.767 72.0027 160.739 72.0732L160.793 71.9446C160.766 72.0088 160.731 72.0695 160.689 72.1252L160.773 72.0162L160.761 72.0313C160.664 72.1348 160.608 72.2702 160.603 72.412C160.604 72.5546 160.661 72.6912 160.761 72.7928C160.862 72.8934 160.999 72.9501 161.142 72.9505C161.285 72.9524 161.422 72.8954 161.522 72.7928C161.646 72.6469 161.74 72.4787 161.8 72.2973C161.845 72.154 161.866 72.0043 161.862 71.8542C161.861 71.5499 161.766 71.2534 161.59 71.0047C161.396 70.7221 161.099 70.5258 160.763 70.4571C160.42 70.396 160.067 70.4525 159.76 70.6175C159.43 70.7952 159.184 71.0957 159.074 71.4537C158.998 71.7401 159.165 72.0347 159.45 72.1161C159.736 72.1888 160.028 72.0228 160.112 71.74L160.112 71.74Z" fill="#190000"/>
<path d="M128.26 172.992C128.26 172.992 135.712 180.677 141.156 182.599L153.121 138.408L149.496 96.3519L151.178 98.7502L137.794 144.492L128.26 172.992Z" fill="#589BF7"/>
<path d="M137.794 154.04C137.794 154.04 166.032 172.025 181.883 153.772C181.883 153.772 181.825 104.251 163.252 85.4644L149.496 93.5198C149.496 93.5198 141.69 105.959 143.039 127.875C143.53 135.839 137.794 154.04 137.794 154.04Z" fill="#589BF7"/>
<mask id="mask15_374_25" style="mask-type:luminance" maskUnits="userSpaceOnUse" x="137" y="85" width="45" height="77">
<path fill-rule="evenodd" clip-rule="evenodd" d="M137.794 154.04C137.794 154.04 166.032 172.025 181.883 153.772C181.883 153.772 181.825 104.251 163.252 85.4644L149.496 93.5198C149.496 93.5198 141.69 105.959 143.039 127.875C143.53 135.839 137.794 154.04 137.794 154.04Z" fill="white"/>
</mask>
<g mask="url(#mask15_374_25)">
<path d="M140.376 133.649C156.363 139.409 159.007 143.238 153.368 117.675C150.881 106.396 170.773 113.715 170.773 113.715C170.773 113.715 173.864 139.88 184.569 140.284C195.274 140.688 186.945 156.849 186.945 156.849C186.945 156.849 191.057 174.855 167.008 169.487L142.96 164.118" fill="#2976DF"/>
</g>
<path d="M149.198 93.848C149.198 93.848 147.525 98.5468 151.974 99.6928L168.15 90.3504L163.252 86.4069C163.252 86.4069 157.983 84.9156 149.198 93.848Z" fill="#F0F3FC"/>
<path d="M142.059 148.794L140.376 145.979L140.45 145.613L148.518 106.185C149.4 101.877 152.393 98.345 156.329 96.9691C161.566 95.1373 167.381 97.4937 170.148 102.571L193.471 145.351L191.996 146.262L168.673 103.483C166.307 99.1425 161.339 97.1287 156.861 98.6947C153.497 99.8705 150.939 102.889 150.185 106.572L142.192 145.635L143.498 147.819L142.059 148.794Z" fill="#FFC562"/>
<path d="M133.01 128.036C133.01 128.036 127.619 139.109 128.26 142.524L158.935 163.32C162.504 166.114 167.334 166.683 171.455 164.795C176.563 162.455 179.394 156.912 178.294 151.402L169.283 106.25C168.774 103.699 167.223 101.478 165.004 100.121C162.785 98.765 160.1 98.3974 157.598 99.1074C152.788 100.472 149.912 105.39 151.08 110.252L159.007 143.238L133.01 128.036Z" fill="#589BF7"/>
<path d="M151.004 57.3453C148.647 57.8092 146.922 59.3058 146.922 61.0809C146.922 63.226 149.442 64.965 152.551 64.965C152.569 64.965 152.585 64.9615 152.603 64.9615C151.06 67.6529 150.754 70.8794 151.763 73.8128C152.773 76.7463 155 79.1009 157.873 80.2724C155.575 84.1426 155.927 89.0336 158.754 92.5354C161.582 96.0372 166.289 97.4111 170.556 95.9802C174.824 94.5493 177.751 90.6154 177.896 86.1169C178.041 81.6183 175.373 77.5041 171.207 75.8014C173.565 71.8531 173.153 66.8423 170.181 63.3327C167.208 59.8231 162.334 58.591 158.051 60.2669" fill="#3A3530"/>
<circle cx="146.773" cy="106.259" r="0.488131" fill="#F0F3FC"/>
<path d="M161.244 108.055L162.154 109.898C162.29 110.173 162.552 110.364 162.856 110.408L164.89 110.704C165.241 110.755 165.533 111.001 165.643 111.339C165.753 111.677 165.661 112.048 165.407 112.296L163.936 113.73C163.716 113.944 163.615 114.253 163.667 114.556L164.015 116.581C164.075 116.931 163.931 117.285 163.643 117.494C163.356 117.703 162.975 117.731 162.66 117.565L160.842 116.609C160.57 116.466 160.245 116.466 159.973 116.609L158.154 117.565C157.84 117.731 157.459 117.703 157.171 117.494C156.884 117.285 156.74 116.931 156.8 116.581L157.147 114.556C157.199 114.253 157.099 113.944 156.879 113.73L155.407 112.296C155.153 112.048 155.061 111.677 155.171 111.339C155.281 111.001 155.573 110.755 155.925 110.704L157.958 110.408C158.262 110.364 158.525 110.173 158.661 109.898L159.57 108.055C159.727 107.736 160.052 107.535 160.407 107.535C160.763 107.535 161.087 107.736 161.244 108.055Z" fill="#F0F3FC"/>
<path d="M166.418 73.9143L165.812 74.7222C165.773 74.782 165.751 74.8511 165.748 74.9223C165.732 74.9935 165.736 75.0676 165.758 75.1371C165.796 75.272 165.885 75.3871 166.005 75.4589C166.131 75.5316 166.28 75.5511 166.42 75.5131L166.549 75.4589C166.629 75.412 166.695 75.3455 166.742 75.2657L167.348 74.4579C167.387 74.398 167.409 74.3289 167.412 74.2577C167.428 74.1865 167.425 74.1124 167.402 74.0429C167.364 73.908 167.276 73.7929 167.155 73.7211C167.029 73.6484 166.88 73.6289 166.74 73.6669L166.611 73.7211C166.532 73.768 166.465 73.8345 166.418 73.9143Z" fill="#190000"/>
</g>
</svg>
