<svg width="81" height="81" viewBox="0 0 81 81" fill="none" xmlns="http://www.w3.org/2000/svg">
<mask id="mask0_352_27" style="mask-type:alpha" maskUnits="userSpaceOnUse" x="0" y="0" width="81" height="81">
<path d="M24.2542 1.09731C19.9981 1.29819 17.0912 1.9799 14.551 2.97524C11.9214 4.00037 9.69233 5.37419 7.47487 7.60074C5.2548 9.82859 3.89141 12.0616 2.87408 14.6938C1.8891 17.2405 1.22165 20.1488 1.0337 24.4075C0.847101 28.674 0.804309 30.0348 0.825109 40.8968C0.845829 51.7574 0.893765 53.1208 1.09722 57.3886C1.30067 61.6435 1.97984 64.5491 2.97517 67.0906C4.0016 69.7202 5.37401 71.9481 7.60183 74.1669C9.82838 76.3857 12.0627 77.7478 14.6961 78.7665C17.2402 79.7502 20.1497 80.4202 24.4071 80.6068C28.6736 80.7947 30.0356 80.8362 40.8949 80.8155C51.7592 80.7947 53.1214 80.7468 57.3878 80.5446C61.6439 80.3411 64.5482 79.6594 67.091 78.6667C69.7205 77.6376 71.9496 76.2677 74.1671 74.0399C76.3846 71.8133 77.7479 69.579 78.7654 66.9455C79.7503 64.4014 80.4203 61.4918 80.6057 57.237C80.7923 52.9679 80.8364 51.6045 80.8156 40.7438C80.7949 29.8819 80.7457 28.5211 80.5435 24.2559C80.3413 19.9972 79.6596 17.0928 78.6655 14.55C77.6378 11.9204 76.2667 9.6938 74.0401 7.47374C71.8136 5.25625 69.5793 3.89023 66.9458 2.87546C64.4005 1.89047 61.4922 1.21912 57.2348 1.03509C52.9684 0.845875 51.6063 0.804427 40.7432 0.825155C29.8827 0.845883 28.5207 0.892555 24.2542 1.09731ZM24.7208 73.4074C20.8211 73.2376 18.7034 72.5896 17.2921 72.0466C15.4232 71.3234 14.0897 70.4564 12.6861 69.0632C11.2851 67.6647 10.4155 66.335 9.68584 64.4701C9.13758 63.0587 8.47796 60.9436 8.29523 57.0439C8.09693 52.8279 8.0516 51.563 8.03213 40.8825C8.0114 30.2046 8.05025 28.9397 8.23432 24.7199C8.40146 20.8227 9.05341 18.7024 9.5951 17.2924C10.3182 15.4209 11.1827 14.0899 12.5785 12.6863C13.9769 11.2827 15.3066 10.4157 17.1728 9.68603C18.5829 9.1352 20.698 8.48071 24.5963 8.29541C28.8148 8.09579 30.0784 8.05304 40.7562 8.03231C51.4365 8.01155 52.7014 8.04916 56.9212 8.2345C60.8183 8.40425 62.9385 9.04969 64.3473 9.59531C66.2174 10.3185 67.551 11.1803 68.9533 12.5787C70.3556 13.9772 71.2252 15.3043 71.9548 17.1744C72.5056 18.5806 73.1601 20.6983 73.3442 24.5954C73.545 28.814 73.5904 30.0789 73.6098 40.7568C73.6305 51.4373 73.5917 52.7022 73.4064 56.9194C73.2366 60.8191 72.5899 62.9382 72.0456 64.3508C71.3224 66.2184 70.4579 67.552 69.0608 68.9556C67.6638 70.354 66.3341 71.2262 64.4665 71.9559C63.0591 72.5053 60.9414 73.1611 57.0456 73.3465C52.8272 73.5448 51.5635 73.5901 40.8819 73.6096C30.2041 73.6303 28.9405 73.5901 24.7208 73.4074ZM57.3295 19.4386C57.3346 22.0877 59.4886 24.2326 62.1376 24.2274C64.7879 24.2222 66.9328 22.0695 66.929 19.4204C66.9237 16.7714 64.7698 14.6252 62.1195 14.6304C59.4692 14.6355 57.3243 16.7895 57.3295 19.4386ZM20.282 40.8592C20.304 52.2032 29.5173 61.379 40.8586 61.357C52.2012 61.335 61.382 52.1242 61.3601 40.7801C61.338 29.44 52.1234 20.259 40.7795 20.281C29.4382 20.303 20.2599 29.5177 20.282 40.8592ZM27.4864 40.8449C27.4734 33.4822 33.4325 27.5011 40.7938 27.4882C48.1564 27.4739 54.1387 33.4304 54.1529 40.7944C54.1673 48.1584 48.2082 54.1382 40.8443 54.1525C33.483 54.1667 27.5007 48.2089 27.4864 40.8449Z" fill="#000008"/>
</mask>
<g mask="url(#mask0_352_27)">
<rect x="-2.52991" y="-2.52917" width="87.1" height="87.1" fill="url(#paint0_radial_352_27)"/>
<g filter="url(#filter0_f_352_27)">
<ellipse cx="13.7701" cy="-5.8437" rx="50.25" ry="35.175" transform="rotate(-14.9317 13.7701 -5.8437)" fill="#7334FF"/>
</g>
<g filter="url(#filter1_f_352_27)">
<circle cx="81.7784" cy="-1.97087" r="47.4583" fill="#B202F5"/>
</g>
<g filter="url(#filter2_f_352_27)">
<circle cx="14.2202" cy="75.6374" r="26.8" fill="#FFB401"/>
</g>
</g>
<defs>
<filter id="filter0_f_352_27" x="-72.4806" y="-79.0735" width="172.502" height="146.46" filterUnits="userSpaceOnUse" color-interpolation-filters="sRGB">
<feFlood flood-opacity="0" result="BackgroundImageFix"/>
<feBlend mode="normal" in="SourceGraphic" in2="BackgroundImageFix" result="shape"/>
<feGaussianBlur stdDeviation="18.425" result="effect1_foregroundBlur_352_27"/>
</filter>
<filter id="filter1_f_352_27" x="-10.3466" y="-94.0959" width="184.25" height="184.25" filterUnits="userSpaceOnUse" color-interpolation-filters="sRGB">
<feFlood flood-opacity="0" result="BackgroundImageFix"/>
<feBlend mode="normal" in="SourceGraphic" in2="BackgroundImageFix" result="shape"/>
<feGaussianBlur stdDeviation="22.3333" result="effect1_foregroundBlur_352_27"/>
</filter>
<filter id="filter2_f_352_27" x="-48.3132" y="13.1041" width="125.067" height="125.067" filterUnits="userSpaceOnUse" color-interpolation-filters="sRGB">
<feFlood flood-opacity="0" result="BackgroundImageFix"/>
<feBlend mode="normal" in="SourceGraphic" in2="BackgroundImageFix" result="shape"/>
<feGaussianBlur stdDeviation="17.8667" result="effect1_foregroundBlur_352_27"/>
</filter>
<radialGradient id="paint0_radial_352_27" cx="0" cy="0" r="1" gradientUnits="userSpaceOnUse" gradientTransform="translate(32.0868 80.6625) rotate(-61.8868) scale(46.2103)">
<stop stop-color="#FFD502"/>
<stop offset="0.869374" stop-color="#FF1154"/>
</radialGradient>
</defs>
</svg>
